<svg xmlns="http://www.w3.org/2000/svg" xmlns:xlink="http://www.w3.org/1999/xlink" width="2379" zoomAndPan="magnify" viewBox="0 0 1784.88 1784.99993" height="2379" preserveAspectRatio="xMidYMid meet" version="1.0"><defs><clipPath id="ee398af776"><path d="M 1080.214844 246.507812 L 1564.210938 246.507812 L 1564.210938 730.503906 L 1080.214844 730.503906 Z M 1080.214844 246.507812 " clip-rule="nonzero"/></clipPath><clipPath id="6fafc1fc80"><path d="M 1322.214844 246.507812 C 1188.5625 246.507812 1080.214844 354.855469 1080.214844 488.507812 C 1080.214844 622.160156 1188.5625 730.503906 1322.214844 730.503906 C 1455.867188 730.503906 1564.210938 622.160156 1564.210938 488.507812 C 1564.210938 354.855469 1455.867188 246.507812 1322.214844 246.507812 Z M 1322.214844 246.507812 " clip-rule="nonzero"/></clipPath><clipPath id="d4cb18d181"><path d="M 1080.214844 246.507812 L 1563.933594 246.507812 L 1563.933594 730.222656 L 1080.214844 730.222656 Z M 1080.214844 246.507812 " clip-rule="nonzero"/></clipPath><clipPath id="e37be07cda"><path d="M 1322.207031 246.507812 C 1188.558594 246.507812 1080.214844 354.851562 1080.214844 488.5 C 1080.214844 622.148438 1188.558594 730.492188 1322.207031 730.492188 C 1455.855469 730.492188 1564.203125 622.148438 1564.203125 488.5 C 1564.203125 354.851562 1455.855469 246.507812 1322.207031 246.507812 Z M 1322.207031 246.507812 " clip-rule="nonzero"/></clipPath><clipPath id="3f5b364604"><path d="M 286 977 L 780 977 L 780 1551 L 286 1551 Z M 286 977 " clip-rule="nonzero"/></clipPath><clipPath id="fa95fcb661"><path d="M 238.839844 954.023438 L 862.160156 925.8125 L 892.097656 1587.339844 L 268.777344 1615.550781 Z M 238.839844 954.023438 " clip-rule="nonzero"/></clipPath><clipPath id="9b81f5c4da"><path d="M 238.839844 954.023438 L 862.160156 925.8125 L 892.097656 1587.339844 L 268.777344 1615.550781 Z M 238.839844 954.023438 " clip-rule="nonzero"/></clipPath><clipPath id="a77ef3c103"><path d="M 592.183594 488.507812 L 1322.214844 488.507812 L 1322.214844 1296 L 592.183594 1296 Z M 592.183594 488.507812 " clip-rule="nonzero"/></clipPath><clipPath id="b171723c44"><path d="M 676.179688 488.507812 L 1238.21875 488.507812 C 1284.609375 488.507812 1322.214844 526.113281 1322.214844 572.5 L 1322.214844 1212.378906 C 1322.214844 1258.769531 1284.609375 1296.375 1238.21875 1296.375 L 676.179688 1296.375 C 629.789062 1296.375 592.183594 1258.769531 592.183594 1212.378906 L 592.183594 572.5 C 592.183594 526.113281 629.789062 488.507812 676.179688 488.507812 Z M 676.179688 488.507812 " clip-rule="nonzero"/></clipPath><clipPath id="dc5e641262"><path d="M 592.183594 488.507812 L 1321.886719 488.507812 L 1321.886719 1296.203125 L 592.183594 1296.203125 Z M 592.183594 488.507812 " clip-rule="nonzero"/></clipPath><clipPath id="a43fe347cc"><path d="M 676.179688 488.507812 L 1238.210938 488.507812 C 1284.597656 488.507812 1322.203125 526.113281 1322.203125 572.5 L 1322.203125 1212.371094 C 1322.203125 1258.757812 1284.597656 1296.363281 1238.210938 1296.363281 L 676.179688 1296.363281 C 629.789062 1296.363281 592.183594 1258.757812 592.183594 1212.371094 L 592.183594 572.5 C 592.183594 526.113281 629.789062 488.507812 676.179688 488.507812 Z M 676.179688 488.507812 " clip-rule="nonzero"/></clipPath><clipPath id="14a99cd3a1"><path d="M 555.164062 521.867188 L 1285.195312 521.867188 L 1285.195312 1329 L 555.164062 1329 Z M 555.164062 521.867188 " clip-rule="nonzero"/></clipPath><clipPath id="8b9bc75465"><path d="M 639.160156 521.867188 L 1201.199219 521.867188 C 1247.589844 521.867188 1285.195312 559.472656 1285.195312 605.859375 L 1285.195312 1245.738281 C 1285.195312 1292.128906 1247.589844 1329.734375 1201.199219 1329.734375 L 639.160156 1329.734375 C 592.773438 1329.734375 555.164062 1292.128906 555.164062 1245.738281 L 555.164062 605.859375 C 555.164062 559.472656 592.773438 521.867188 639.160156 521.867188 Z M 639.160156 521.867188 " clip-rule="nonzero"/></clipPath><clipPath id="d442b136e6"><path d="M 555.164062 521.867188 L 1284.867188 521.867188 L 1284.867188 1329.5625 L 555.164062 1329.5625 Z M 555.164062 521.867188 " clip-rule="nonzero"/></clipPath><clipPath id="79036ea224"><path d="M 639.160156 521.867188 L 1201.191406 521.867188 C 1247.578125 521.867188 1285.183594 559.472656 1285.183594 605.859375 L 1285.183594 1245.730469 C 1285.183594 1292.117188 1247.578125 1329.722656 1201.191406 1329.722656 L 639.160156 1329.722656 C 592.769531 1329.722656 555.164062 1292.117188 555.164062 1245.730469 L 555.164062 605.859375 C 555.164062 559.472656 592.769531 521.867188 639.160156 521.867188 Z M 639.160156 521.867188 " clip-rule="nonzero"/></clipPath></defs><g clip-path="url(#ee398af776)"><g clip-path="url(#6fafc1fc80)"><path fill="#ff914d" d="M 1080.214844 246.507812 L 1564.210938 246.507812 L 1564.210938 730.503906 L 1080.214844 730.503906 Z M 1080.214844 246.507812 " fill-opacity="1" fill-rule="nonzero"/></g></g><g clip-path="url(#d4cb18d181)"><g clip-path="url(#e37be07cda)"><path stroke-linecap="butt" transform="matrix(0.74995, 0, 0, 0.74995, 1080.214203, 246.506951)" fill="none" stroke-linejoin="miter" d="M 322.678811 0.00114934 C 144.468906 0.00114934 0.000854839 144.469201 0.000854839 322.679105 C 0.000854839 500.88901 144.468906 645.357062 322.678811 645.357062 C 500.888716 645.357062 645.361976 500.88901 645.361976 322.679105 C 645.361976 144.469201 500.888716 0.00114934 322.678811 0.00114934 Z M 322.678811 0.00114934 " stroke="#000000" stroke-width="8" stroke-opacity="1" stroke-miterlimit="4"/></g></g><g clip-path="url(#3f5b364604)"><g clip-path="url(#fa95fcb661)"><g clip-path="url(#9b81f5c4da)"><path fill="#ffde59" d="M 345.761719 1204.199219 C 514.859375 1122.453125 353.371094 1042.289062 472.066406 990.191406 C 590.761719 938.097656 685.148438 1048.542969 670.640625 1197.980469 C 661.09375 1295.921875 886.621094 1460.304688 713.355469 1531.839844 C 540.089844 1603.375 519.164062 1447.300781 400.613281 1431.277344 C 259.570312 1412.085938 258.40625 1246.390625 345.761719 1204.199219 Z M 345.761719 1204.199219 " fill-opacity="1" fill-rule="nonzero"/></g></g></g><g clip-path="url(#a77ef3c103)"><g clip-path="url(#b171723c44)"><path fill="#00bf63" d="M 592.183594 488.507812 L 1322.214844 488.507812 L 1322.214844 1295.527344 L 592.183594 1295.527344 Z M 592.183594 488.507812 " fill-opacity="1" fill-rule="nonzero"/></g></g><g clip-path="url(#dc5e641262)"><g clip-path="url(#a43fe347cc)"><path stroke-linecap="butt" transform="matrix(0.74995, 0, 0, 0.74995, 592.18517, 488.507698)" fill="none" stroke-linejoin="miter" d="M 112.000224 0.000153188 L 861.425637 0.000153188 C 923.278756 0.000153188 973.422754 50.144151 973.422754 111.99727 L 973.422754 965.216124 C 973.422754 1027.069243 923.278756 1077.213241 861.425637 1077.213241 L 112.000224 1077.213241 C 50.141896 1077.213241 -0.00210165 1027.069243 -0.00210165 965.216124 L -0.00210165 111.99727 C -0.00210165 50.144151 50.141896 0.000153188 112.000224 0.000153188 Z M 112.000224 0.000153188 " stroke="#000000" stroke-width="6" stroke-opacity="1" stroke-miterlimit="4"/></g></g><g clip-path="url(#14a99cd3a1)"><g clip-path="url(#8b9bc75465)"><path fill="#ffffff" d="M 555.164062 521.867188 L 1285.195312 521.867188 L 1285.195312 1328.890625 L 555.164062 1328.890625 Z M 555.164062 521.867188 " fill-opacity="1" fill-rule="nonzero"/></g></g><g clip-path="url(#d442b136e6)"><g clip-path="url(#79036ea224)"><path stroke-linecap="butt" transform="matrix(0.74995, 0, 0, 0.74995, 555.16598, 521.867709)" fill="none" stroke-linejoin="miter" d="M 111.999769 -0.000695895 L 861.425181 -0.000695895 C 923.278301 -0.000695895 973.422299 50.143302 973.422299 111.996421 L 973.422299 965.215274 C 973.422299 1027.068394 923.278301 1077.212392 861.425181 1077.212392 L 111.999769 1077.212392 C 50.141441 1077.212392 -0.0025572 1027.068394 -0.0025572 965.215274 L -0.0025572 111.996421 C -0.0025572 50.143302 50.141441 -0.000695895 111.999769 -0.000695895 Z M 111.999769 -0.000695895 " stroke="#000000" stroke-width="6" stroke-opacity="1" stroke-miterlimit="4"/></g></g><path stroke-linecap="butt" transform="matrix(0.74995, 0, 0, 0.74995, 634.618371, 655.325347)" fill="none" stroke-linejoin="miter" d="M -0.00157846 8.499067 L 761.54965 8.499067 " stroke="#5271ff" stroke-width="17" stroke-opacity="1" stroke-miterlimit="4"/><path stroke-linecap="butt" transform="matrix(0.74995, 0, 0, 0.74995, 634.618371, 775.744566)" fill="none" stroke-linejoin="miter" d="M -0.00157846 8.4974 L 761.54965 8.4974 " stroke="#5271ff" stroke-width="17" stroke-opacity="1" stroke-miterlimit="4"/><path stroke-linecap="butt" transform="matrix(0.74995, 0, 0, 0.74995, 634.618371, 892.43998)" fill="none" stroke-linejoin="miter" d="M -0.00157846 8.502474 L 761.54965 8.502474 " stroke="#5271ff" stroke-width="17" stroke-opacity="1" stroke-miterlimit="4"/><path stroke-linecap="butt" transform="matrix(0.74995, 0, 0, 0.74995, 634.618371, 1012.044574)" fill="none" stroke-linejoin="miter" d="M -0.00157846 8.498432 L 761.54965 8.498432 " stroke="#5271ff" stroke-width="17" stroke-opacity="1" stroke-miterlimit="4"/><path stroke-linecap="butt" transform="matrix(0.74995, 0.000000000000000358, -0.000000000000000358, 0.74995, 634.618371, 1131.58454)" fill="none" stroke-linejoin="miter" d="M -0.00157846 8.502435 L 476.176287 8.502435 " stroke="#5271ff" stroke-width="17" stroke-opacity="1" stroke-miterlimit="4"/></svg>